<svg width="24" height="24" viewBox="0 0 24 24" fill="none" xmlns="http://www.w3.org/2000/svg">
<circle cx="12" cy="9" r="4" fill="white"/>
<circle cx="17" cy="9" r="3" fill="white"/>
<circle cx="7" cy="9" r="3" fill="white"/>
<path d="M17 13C19.4478 13.0001 20.4286 15.4456 20.7969 16.916C20.9406 17.4899 20.4862 18 19.8945 18H17.5684C17.1653 16.4903 16.3855 14.778 14.8779 13.7998C15.4201 13.321 16.1137 13 17 13Z" fill="white"/>
<path d="M7 13C7.88599 13 8.57903 13.3212 9.12109 13.7998C7.61395 14.7781 6.83465 16.4905 6.43164 18H4.10449C3.51309 17.9997 3.05944 17.4898 3.20312 16.916C3.57139 15.4456 4.55216 13 7 13Z" fill="white"/>
<path d="M12 14C15.7087 14 16.6665 17.301 16.9139 19.0061C16.9932 19.5526 16.5523 20 16 20H8C7.44772 20 7.00684 19.5526 7.08614 19.0061C7.33351 17.301 8.29134 14 12 14Z" fill="white"/>
</svg>
