<svg width="24" height="24" viewBox="0 0 24 24" fill="none" xmlns="http://www.w3.org/2000/svg">
<path fill-rule="evenodd" clip-rule="evenodd" d="M14.8787 2.70705C16.0503 1.53548 17.9497 1.53547 19.1213 2.70705L21.2929 4.87862C22.4645 6.0502 22.4645 7.94969 21.2929 9.12126L13.7071 16.707C13.5196 16.8946 13.2652 16.9999 13 16.9999H8C7.44772 16.9999 7 16.5522 7 15.9999V10.9999C7 10.7347 7.10536 10.4804 7.29289 10.2928L14.8787 2.70705ZM17.7071 4.12126C17.3166 3.73074 16.6834 3.73074 16.2929 4.12126L15.4142 4.99994L19 8.58573L19.8787 7.70705C20.2692 7.31652 20.2692 6.68336 19.8787 6.29284L17.7071 4.12126ZM17.5858 9.99994L14 6.41416L9 11.4142V14.9999H12.5858L17.5858 9.99994ZM7 3.99994C5.34315 3.99994 4 5.34309 4 6.99994V16.9999C4 18.6568 5.34315 19.9999 7 19.9999H17C18.6569 19.9999 20 18.6568 20 16.9999V13.9999C20 13.4477 20.4477 12.9999 21 12.9999C21.5523 12.9999 22 13.4477 22 13.9999V16.9999C22 19.7614 19.7614 21.9999 17 21.9999H7C4.23858 21.9999 2 19.7614 2 16.9999V6.99994C2 4.23852 4.23858 1.99994 7 1.99994H10C10.5523 1.99994 11 2.44766 11 2.99994C11 3.55223 10.5523 3.99994 10 3.99994H7Z" fill="white"/>
</svg>
