<svg width="18" height="18" viewBox="0 0 18 18" fill="none" xmlns="http://www.w3.org/2000/svg">
<path d="M10.5188 10.4736L11.7938 8.26859C11.7938 8.26859 11.7263 8.20859 11.6213 8.13359L10.5188 7.26359L10.5113 7.27859C10.5338 7.09859 10.5488 6.92609 10.5488 6.74609C10.5488 6.56609 10.5338 6.39359 10.5038 6.22859L10.5113 6.23609L11.7938 5.23109L10.5188 3.01859L9.01127 3.62609V3.63359C8.73377 3.42359 8.43377 3.24359 8.11127 3.10859H8.11877L7.89377 1.49609H5.33627L5.10377 3.10859H5.11127C4.78877 3.24359 4.48877 3.42359 4.21127 3.63359V3.62609L2.70377 3.01859L1.42877 5.23109L2.70377 6.23609L2.71127 6.22859C2.68877 6.39359 2.67377 6.56609 2.67377 6.74609C2.67377 6.92609 2.68877 7.09859 2.71127 7.27859L2.70377 7.26359L1.60127 8.13359C1.50377 8.20859 1.42877 8.26859 1.42877 8.26859L2.70377 10.4736L4.21877 9.87359L4.20377 9.85109C4.48127 10.0686 4.78127 10.2486 5.11127 10.3836H5.10377L5.33627 11.9961H7.88627C7.88627 11.9961 7.90127 11.8986 7.91627 11.7711L8.11877 10.3836H8.11127C8.44127 10.2486 8.74127 10.0686 9.01877 9.85109L9.00377 9.87359L10.5188 10.4736ZM6.61127 8.24609C5.78627 8.24609 5.11127 7.57109 5.11127 6.74609C5.11127 5.92109 5.78627 5.24609 6.61127 5.24609C7.43627 5.24609 8.11127 5.92109 8.11127 6.74609C8.11127 7.57109 7.43627 8.24609 6.61127 8.24609Z" fill="#CE324D"/>
<path d="M15.7388 13.4511L15.7313 13.4586C15.7463 13.3461 15.7538 13.2336 15.7538 13.1211C15.7538 13.0086 15.7463 12.8961 15.7238 12.7911L15.7313 12.7986L16.5563 12.1536L15.7388 10.7286L14.7713 11.1186V11.1261C14.5913 10.9911 14.4038 10.8786 14.1938 10.7886H14.2013L14.0513 9.74609H12.4088L12.2588 10.7811H12.2663C12.0563 10.8711 11.8688 10.9836 11.6888 11.1186V11.1111L10.7213 10.7211L9.90377 12.1461L10.7213 12.7911L10.7288 12.7836C10.7138 12.8886 10.7063 13.0011 10.7063 13.1136C10.7063 13.2261 10.7138 13.3386 10.7288 13.4586L10.7213 13.4511L10.0163 14.0136C9.95627 14.0586 9.90377 14.1036 9.90377 14.1036L10.7213 15.5211L11.6963 15.1386L11.6888 15.1236C11.8688 15.2661 12.0638 15.3786 12.2738 15.4686H12.2663L12.4163 16.5036H14.0588C14.0588 16.5036 14.0663 16.4436 14.0813 16.3611L14.2088 15.4686H14.2013C14.4113 15.3786 14.6063 15.2661 14.7863 15.1236L14.7788 15.1386L15.7538 15.5211L16.5713 14.1036C16.5713 14.1036 16.5263 14.0661 16.4588 14.0136L15.7388 13.4511ZM13.2263 14.0886C12.6938 14.0886 12.2588 13.6536 12.2588 13.1211C12.2588 12.5886 12.6938 12.1536 13.2263 12.1536C13.7588 12.1536 14.1938 12.5886 14.1938 13.1211C14.1938 13.6536 13.7588 14.0886 13.2263 14.0886Z" fill="#CE324D"/>
</svg>
