<svg width="35" height="35" viewBox="0 0 35 35" fill="none" xmlns="http://www.w3.org/2000/svg">
<g clip-path="url(#clip0_473_1953)">
<path d="M19.1188 8.3415L18.2876 12.5561C18.1126 13.4165 18.3459 14.3061 18.9001 14.9769C19.4542 15.6478 20.2709 16.0415 21.1459 16.0415H29.1667V17.6165L25.4188 26.2498H13.6209C13.3584 26.2498 13.1251 26.0165 13.1251 25.754V14.3207L19.1188 8.3415ZM20.4167 2.9165L11.0688 12.2644C10.5147 12.8186 10.2084 13.5623 10.2084 14.3353V25.754C10.2084 27.6353 11.7397 29.1665 13.6209 29.1665H25.4334C26.4688 29.1665 27.4167 28.6269 27.9417 27.7519L31.8355 18.7832C31.9959 18.4186 32.0834 18.0248 32.0834 17.6165V16.0415C32.0834 14.4373 30.7709 13.1248 29.1667 13.1248H21.1459L22.4876 6.34359C22.5605 6.02275 22.5168 5.67275 22.3709 5.38109C22.0355 4.72484 21.6126 4.12692 21.0876 3.60192L20.4167 2.9165ZM5.83341 13.1248H2.91675V29.1665H5.83341C6.6355 29.1665 7.29175 28.5103 7.29175 27.7082V14.5832C7.29175 13.7811 6.6355 13.1248 5.83341 13.1248Z" fill="#D90429"/>
</g>
<defs>
<clipPath id="clip0_473_1953">
<rect width="35" height="35" fill="white"/>
</clipPath>
</defs>
</svg>
