<svg width="17" height="15" viewBox="0 0 17 15" fill="none" xmlns="http://www.w3.org/2000/svg">
<path d="M1.09004 15V13.1099H4.03547L1.57708 5.8311C1.08231 5.63002 0.695771 5.35858 0.417463 5.01675C0.139154 4.67493 0 4.22252 0 3.65951C0 3.02947 0.266712 2.48324 0.800136 2.02078C1.33356 1.55831 1.9636 1.32708 2.69031 1.32708C3.37064 1.32708 3.93496 1.48459 4.38336 1.7996C4.83176 2.11461 5.13326 2.53351 5.28786 3.0563H8.67394V1.26676H9.97272V1.82976L12.176 0L16.9768 1.99062L16.4434 2.83512L12.3383 1.1059L10.0655 3.09651V4.14209L12.3383 6.21313L16.4434 4.48391L17 5.36863L12.1528 7.31903L9.97272 5.50938V6.07238H8.67394V4.26273H5.24147C5.24147 4.42359 5.19124 4.58778 5.09072 4.75536C4.99021 4.92293 4.8704 5.06031 4.73124 5.16756L9.48568 13.1099H13.1501V15H1.09004ZM2.69031 4.78552C3.06139 4.78552 3.37064 4.67827 3.61801 4.4638C3.86538 4.24934 3.98909 3.98123 3.98909 3.65951C3.98909 3.3378 3.86538 3.06969 3.61801 2.85522C3.37064 2.64076 3.06139 2.53351 2.69031 2.53351C2.31924 2.53351 2.00999 2.64076 1.76262 2.85522C1.51523 3.06969 1.39154 3.3378 1.39154 3.65951C1.39154 3.98123 1.51523 4.24934 1.76262 4.4638C2.00999 4.67827 2.31924 4.78552 2.69031 4.78552ZM5.56617 13.1099H7.93179L3.54843 5.73056C3.50205 5.75738 3.42472 5.78417 3.31651 5.81099C3.20829 5.83781 3.12322 5.85792 3.06139 5.87131L5.56617 13.1099Z" fill="white"/>
</svg>
