<svg width="30" height="30" viewBox="0 0 30 30" fill="none" xmlns="http://www.w3.org/2000/svg">
<path d="M5.78119 27.5C5.44786 27.5 5.14578 27.3646 4.87494 27.0937C4.60411 26.8229 4.46869 26.5208 4.46869 26.1875V22.9063C4.46869 21.0313 5.05203 19.375 6.21869 17.9375C7.38538 16.5 8.88538 15.5833 10.7187 15.1875C9.88538 15.7708 9.2395 16.5052 8.78119 17.3906C8.32288 18.2761 8.09369 19.2292 8.09369 20.25V26.1875C8.09369 26.4167 8.12494 26.6458 8.18744 26.875C8.24994 27.1042 8.35413 27.3125 8.49994 27.5H5.78119ZM10.3749 27.5C10.0208 27.5 9.7135 27.3698 9.45306 27.1094C9.19263 26.8489 9.06244 26.5417 9.06244 26.1875V20.25C9.06244 18.7917 9.57806 17.5521 10.6093 16.5313C11.6406 15.5104 12.8854 15 14.3437 15H20.2499C21.7083 15 22.9479 15.5104 23.9687 16.5313C24.9895 17.5521 25.4999 18.7917 25.4999 20.25V22.25C25.4999 23.7083 24.9895 24.9479 23.9687 25.9687C22.9479 26.9896 21.7083 27.5 20.2499 27.5H10.3749ZM14.9999 12.375C13.6249 12.375 12.4583 11.8958 11.4999 10.9375C10.5416 9.97919 10.0624 8.8125 10.0624 7.4375C10.0624 6.0625 10.5416 4.89583 11.4999 3.9375C12.4583 2.97917 13.6249 2.5 14.9999 2.5C16.3749 2.5 17.5416 2.97917 18.4999 3.9375C19.4583 4.89583 19.9374 6.0625 19.9374 7.4375C19.9374 8.8125 19.4583 9.97919 18.4999 10.9375C17.5416 11.8958 16.3749 12.375 14.9999 12.375Z" fill="white"/>
</svg>
