<svg width="25" height="28" viewBox="0 0 25 28" fill="none" xmlns="http://www.w3.org/2000/svg">
<path d="M6.89402 11.1789L7.86967 13.0912C8.09708 13.5369 8.21078 13.7598 8.21078 14.0002C8.21078 14.2405 8.09708 14.4634 7.86967 14.9091L6.89401 16.8214C5.76654 19.0312 5.2028 20.1362 5.70835 20.6499C6.21389 21.1637 7.32778 20.6179 9.55557 19.5263L17.1681 15.7961C18.7632 15.0146 19.5608 14.6238 19.5608 14.0002C19.5608 13.3766 18.7632 12.9858 17.1681 12.2042L9.55557 8.47402C7.32778 7.3824 6.21389 6.8366 5.70835 7.35038C5.2028 7.86416 5.76654 8.96909 6.89402 11.1789Z" stroke="white" stroke-width="2"/>
</svg>
