<svg width="18" height="18" viewBox="0 0 18 18" fill="none" xmlns="http://www.w3.org/2000/svg">
<path d="M12.75 5.625C12.75 6.0375 13.0875 6.375 13.5 6.375C13.71 6.375 13.8975 6.2925 14.0325 6.1575C14.3325 5.8575 14.8125 4.3125 14.8125 4.3125C14.8125 4.3125 13.2675 4.7925 12.9675 5.0925C12.8325 5.2275 12.75 5.415 12.75 5.625Z" fill="#CE324D"/>
<path d="M13.5 1.875C11.43 1.875 9.75 3.555 9.75 5.625C9.75 7.1625 10.6725 8.4825 12 9.06V10.125H12.75V14.625H11.25V10.125H8.25V4.125C8.25 3.3 7.575 2.625 6.75 2.625H2.25C1.425 2.625 0.75 3.3 0.75 4.125V14.625C0.75 15.45 1.425 16.125 2.25 16.125H6.75C7.575 16.125 8.25 15.45 8.25 14.625V11.625H9.75V16.125H14.25V10.125H15V9.06C16.3275 8.4825 17.25 7.1625 17.25 5.625C17.25 3.555 15.57 1.875 13.5 1.875ZM3.75 15L2.25 13.5V11.3775L3.75 12.8775V15ZM3.75 11.25L2.25 9.75V7.6275L3.75 9.1275V11.25ZM3.75 7.5L2.25 6V3.8775L3.75 5.3775V7.5ZM6.75 13.5L5.25 15V12.8775L6.75 11.3775V13.5ZM6.75 9.75L5.25 11.25V9.1275L6.75 7.6275V9.75ZM6.75 6L5.25 7.5V5.3775L6.75 3.8775V6ZM13.5 7.875C12.255 7.875 11.25 6.87 11.25 5.625C11.25 4.38 12.255 3.375 13.5 3.375C14.745 3.375 15.75 4.38 15.75 5.625C15.75 6.87 14.745 7.875 13.5 7.875Z" fill="#CE324D"/>
</svg>
