<svg width="24" height="24" viewBox="0 0 24 24" fill="none" xmlns="http://www.w3.org/2000/svg">
<path fill-rule="evenodd" clip-rule="evenodd" d="M6.5 16H16C17.8856 16 18.8284 16 19.4142 15.4142C20 14.8284 20 13.8856 20 12V7C20 5.11438 20 4.17157 19.4142 3.58579C18.8284 3 17.8856 3 16 3H8C6.11438 3 5.17157 3 4.58579 3.58579C4 4.17157 4 5.11438 4 7V18.5C4 17.1193 5.11929 16 6.5 16ZM16.4141 6.58594C15.633 5.80489 14.367 5.80489 13.5859 6.58594L11 9.17188L10.4141 8.58594C9.63301 7.80489 8.36699 7.80489 7.58594 8.58594C6.80489 9.36699 6.80489 10.633 7.58594 11.4141L8.87891 12.707C10.0505 13.8785 11.9495 13.8785 13.1211 12.707L16.4141 9.41406C17.1951 8.63301 17.1951 7.36699 16.4141 6.58594Z" fill="white"/>
<path d="M19.4142 15.4142L18.7071 14.7071L18.7071 14.7071L19.4142 15.4142ZM19.4142 3.58579L18.7071 4.29289L18.7071 4.29289L19.4142 3.58579ZM13.5859 6.58594L12.8788 5.87883L12.8788 5.87883L13.5859 6.58594ZM16.4141 6.58594L15.707 7.29304L15.707 7.29305L16.4141 6.58594ZM11 9.17188L10.2929 9.87898L11 10.5861L11.7071 9.87898L11 9.17188ZM7.58594 8.58594L6.87883 7.87883L6.87883 7.87883L7.58594 8.58594ZM7.58594 11.4141L6.87883 12.1212L6.87883 12.1212L7.58594 11.4141ZM8.87891 12.707L8.1718 13.4141L8.17182 13.4142L8.87891 12.707ZM13.1211 12.707L13.8282 13.4142L13.8282 13.4141L13.1211 12.707ZM16.4141 9.41406L15.707 8.70696L15.707 8.70696L16.4141 9.41406ZM16 16V15H6.5V16V17H16V16ZM19.4142 15.4142L18.7071 14.7071C18.631 14.7832 18.495 14.8774 18.0613 14.9357C17.5988 14.9979 16.9711 15 16 15V16V17C16.9145 17 17.701 17.0021 18.3278 16.9179C18.9833 16.8297 19.6117 16.631 20.1213 16.1213L19.4142 15.4142ZM20 12H19C19 12.9711 18.9979 13.5988 18.9357 14.0613C18.8774 14.495 18.7832 14.631 18.7071 14.7071L19.4142 15.4142L20.1213 16.1213C20.631 15.6117 20.8297 14.9833 20.9179 14.3278C21.0021 13.701 21 12.9145 21 12H20ZM20 7H19V12H20H21V7H20ZM19.4142 3.58579L18.7071 4.29289C18.7832 4.36902 18.8774 4.50496 18.9357 4.9387C18.9979 5.40121 19 6.02892 19 7H20H21C21 6.08546 21.0021 5.29896 20.9179 4.67221C20.8297 4.01669 20.631 3.38834 20.1213 2.87868L19.4142 3.58579ZM16 3V4C16.9711 4 17.5988 4.00212 18.0613 4.06431C18.495 4.12262 18.631 4.21677 18.7071 4.29289L19.4142 3.58579L20.1213 2.87868C19.6117 2.36902 18.9833 2.17027 18.3278 2.08214C17.701 1.99788 16.9145 2 16 2V3ZM8 3V4H16V3V2H8V3ZM4.58579 3.58579L5.29289 4.29289C5.36902 4.21677 5.50496 4.12262 5.9387 4.06431C6.40121 4.00212 7.02892 4 8 4V3V2C7.08546 2 6.29896 1.99788 5.67221 2.08214C5.01669 2.17027 4.38834 2.36902 3.87868 2.87868L4.58579 3.58579ZM4 7H5C5 6.02892 5.00212 5.40121 5.06431 4.9387C5.12262 4.50496 5.21677 4.36902 5.29289 4.29289L4.58579 3.58579L3.87868 2.87868C3.36902 3.38834 3.17027 4.01669 3.08214 4.67221C2.99788 5.29896 3 6.08546 3 7H4ZM4 18.5H5V7H4H3V18.5H4ZM6.5 16V15C4.567 15 3 16.567 3 18.5H4H5C5 17.6716 5.67157 17 6.5 17V16ZM13.5859 6.58594L14.293 7.29304C14.6836 6.90252 15.3164 6.90252 15.707 7.29304L16.4141 6.58594L17.1212 5.87883C15.9496 4.70726 14.0504 4.70726 12.8788 5.87883L13.5859 6.58594ZM11 9.17188L11.7071 9.87898L14.293 7.29304L13.5859 6.58594L12.8788 5.87883L10.2929 8.46477L11 9.17188ZM10.4141 8.58594L9.70696 9.29304L10.2929 9.87898L11 9.17188L11.7071 8.46477L11.1212 7.87883L10.4141 8.58594ZM7.58594 8.58594L8.29304 9.29304C8.68357 8.90252 9.31643 8.90252 9.70696 9.29304L10.4141 8.58594L11.1212 7.87883C9.9496 6.70726 8.0504 6.70726 6.87883 7.87883L7.58594 8.58594ZM7.58594 11.4141L8.29304 10.707C7.90252 10.3164 7.90252 9.68357 8.29304 9.29304L7.58594 8.58594L6.87883 7.87883C5.70726 9.0504 5.70726 10.9496 6.87883 12.1212L7.58594 11.4141ZM8.87891 12.707L9.58601 11.9999L8.29304 10.707L7.58594 11.4141L6.87883 12.1212L8.1718 13.4141L8.87891 12.707ZM13.1211 12.707L12.414 11.9999C11.633 12.7809 10.367 12.7809 9.58599 11.9999L8.87891 12.707L8.17182 13.4142C9.7339 14.9761 12.2661 14.9761 13.8282 13.4142L13.1211 12.707ZM16.4141 9.41406L15.707 8.70696L12.414 11.9999L13.1211 12.707L13.8282 13.4141L17.1212 10.1212L16.4141 9.41406ZM16.4141 6.58594L15.707 7.29305C16.0975 7.68357 16.0975 8.31643 15.707 8.70696L16.4141 9.41406L17.1212 10.1212C18.2927 8.9496 18.2927 7.0504 17.1212 5.87883L16.4141 6.58594ZM11 21V20H6.5V21V22H11V21ZM4 18.5H3C3 20.433 4.567 22 6.5 22V21V20C5.67157 20 5 19.3284 5 18.5H4Z" fill="white"/>
<path d="M20 21H10" stroke="white" stroke-width="2" stroke-linecap="round"/>
</svg>
